<svg width="1024" height="1024" viewBox="0 0 1024 1024" fill="none" xmlns="http://www.w3.org/2000/svg">
  <!-- Background -->
  <rect width="1024" height="1024" fill="#151219"/>
  <!-- App Icon Background / Optional, removing this makes it cleaner if it's an app icon but we can keep the dark fill -->
  <!-- We'll remove the border rects to make it a pure clean icon inside the 1024 box, or maybe keep the gradient? -->
  <!-- Actually the user liked the colors, so let's keep the dark base -->
  
  <rect width="1024" height="1024" fill="#151219"/>
  <rect x="72" y="72" width="880" height="880" rx="198" fill="#201A29"/>
  <rect x="72" y="72" width="880" height="880" rx="198" stroke="#4B415C" stroke-width="8"/>

  <!-- Speech Bubble -->
  <path d="M512 240C350 240 210 350 210 500C210 580 250 650 320 690L290 820L440 730C460 735 485 740 512 740C674 740 814 630 814 500C814 350 674 240 512 240Z" stroke="#D8CEF5" stroke-width="48" stroke-linejoin="round" fill="#201A29"/>

  <!-- Audio Wave -->
  <line x1="392" y1="465" x2="392" y2="535" stroke="#8F7DCC" stroke-width="36" stroke-linecap="round"/>
  <line x1="452" y1="415" x2="452" y2="585" stroke="#8F7DCC" stroke-width="36" stroke-linecap="round"/>
  <line x1="512" y1="375" x2="512" y2="625" stroke="#8F7DCC" stroke-width="36" stroke-linecap="round"/>
  <line x1="572" y1="415" x2="572" y2="585" stroke="#8F7DCC" stroke-width="36" stroke-linecap="round"/>
  <line x1="632" y1="465" x2="632" y2="535" stroke="#8F7DCC" stroke-width="36" stroke-linecap="round"/>

</svg>
